<?xml version="1.0" encoding="UTF-8" standalone="no"?>
<!-- Created with Inkscape (http://www.inkscape.org/) -->

<svg
   width="229.71927mm"
   height="52.871044mm"
   viewBox="0 0 868.23032 199.82757"
   version="1.1"
   id="svg1"
   inkscape:version="1.3.1 (9b9bdc1480, 2023-11-25, custom)"
   sodipodi:docname="haute-couture-nav-logo.svg"
   xmlns:inkscape="http://www.inkscape.org/namespaces/inkscape"
   xmlns:sodipodi="http://sodipodi.sourceforge.net/DTD/sodipodi-0.dtd"
   xmlns="http://www.w3.org/2000/svg"
   xmlns:svg="http://www.w3.org/2000/svg">
  <sodipodi:namedview
     id="namedview1"
     pagecolor="#ffffff"
     bordercolor="#000000"
     borderopacity="0.25"
     inkscape:showpageshadow="2"
     inkscape:pageopacity="0.0"
     inkscape:pagecheckerboard="0"
     inkscape:deskcolor="#d1d1d1"
     inkscape:document-units="mm"
     inkscape:zoom="0.6595348"
     inkscape:cx="516.27298"
     inkscape:cy="363.89285"
     inkscape:window-width="1920"
     inkscape:window-height="970"
     inkscape:window-x="0"
     inkscape:window-y="0"
     inkscape:window-maximized="1"
     inkscape:current-layer="g16" />
  <defs
     id="defs1" />
  <g
     inkscape:label="Layer 1"
     inkscape:groupmode="layer"
     id="layer1"
     transform="translate(-127.14467,-296.93662)">
    <g
       id="g16"
       inkscape:export-filename="../bebf2906/haute-couture-logo.svg"
       inkscape:export-xdpi="96"
       inkscape:export-ydpi="96"
       style="fill:#dab073;fill-opacity:1"
       transform="matrix(2.3659748,0,0,2.3659748,-3295.8596,-3517.6555)">
      <g
         id="g2"
         transform="translate(-20.566311,-7.4980688)">
        <g
           id="g424"
           transform="matrix(0.82457199,0,0,0.82457199,191.9681,345.71597)"
           style="fill:#dab073;fill-opacity:1">
          <path
             fill="#000000"
             opacity="1"
             stroke="none"
             d="m 1551.2053,1635.8776 c 20.3274,-12.6788 40.5193,-25.2812 60.7297,-37.8537 1.3271,-0.8255 2.7313,-1.6912 4.2177,-2.0523 1.6077,-0.3906 1.8098,-1.2479 1.7978,-2.6 -0.033,-3.7182 0.054,-7.4375 0.017,-11.1555 -0.039,-4.0166 1.3513,-6.5135 6.0758,-6.7545 4.3761,-0.2233 7.2985,-2.9997 8.9393,-7.0109 1.6792,-4.1052 0.468,-7.724 -2.2369,-10.9073 -3.6193,-4.2592 -9.537,-5.4318 -14.8249,-3.1011 -4.7698,2.1022 -7.2081,6.773 -6.5276,12.5042 0.2616,2.203 -0.9616,4.1753 -2.8796,4.6428 -2.2942,0.5593 -3.9986,-0.391 -4.884,-2.7193 -0.7654,-2.0129 -0.6557,-4.1408 -0.3418,-6.1504 1.5997,-10.2408 8.6466,-16.7694 18.2809,-17.5352 10.8212,-0.8602 19.4687,5.6378 21.6777,15.493 2.1728,9.6931 -3.2,19.2839 -12.698,22.3808 -1.7609,0.5742 -2.3541,1.3992 -2.2795,3.1669 0.1023,2.4255 -0.026,4.8606 -0.045,7.2916 -0.01,0.9618 0.1808,1.7178 1.1737,2.3002 7.0246,4.1201 14.0249,8.2829 20.9951,12.4947 12.9681,7.8362 25.9125,15.7117 38.8617,23.5793 2.565,1.5584 5.1181,3.1373 7.6564,4.7387 2.3123,1.4589 3.5142,3.4728 3.1328,6.3094 -0.3051,2.2694 -1.9824,4.0169 -4.5568,4.4478 -0.9783,0.1637 -1.9942,0.1387 -2.9929,0.1389 -45.4109,0.01 -90.8219,0.01 -136.2328,0.01 -0.5721,0 -1.1442,-10e-5 -1.7163,0 -2.3872,-0.019 -4.3899,-0.7399 -5.3536,-3.1397 -1.0251,-2.5527 -0.4538,-4.941 1.6252,-6.8051 0.6864,-0.6155 1.5018,-1.0871 2.3894,-1.7078 m 53.1037,-23.4662 c -14.2505,8.8808 -28.5011,17.7616 -42.7517,26.6424 0.065,0.115 0.1307,0.2301 0.1961,0.3451 40.4198,0 80.8395,0 121.7954,0 -1.5464,-0.995 -2.6496,-1.7365 -3.7831,-2.4284 -3.7812,-2.3076 -7.5723,-4.599 -11.3613,-6.8937 -13.6286,-8.2538 -27.2435,-16.5304 -40.8964,-24.7437 -3.725,-2.2408 -7.6327,-2.2822 -11.4023,-0.1064 -3.8967,2.2492 -7.6903,4.6769 -11.7967,7.1847 z"
             id="path1-4"
             style="fill:#dab073;fill-opacity:1;stroke-width:0.429245" />
        </g>
        <g
           id="g1"
           transform="translate(0,1.956236)">
          <g
             id="g423"
             transform="translate(86.96106,-62.514087)"
             style="fill:#dab073;fill-opacity:1">
            <path
               fill="#000000"
               opacity="1"
               stroke="none"
               d="m 1545.2544,1728.2192 c -1.6122,1.2928 -3.2422,1.5373 -4.9301,0.6767 -1.6276,-0.8297 -1.8734,-2.3388 -1.8514,-4.0164 0.051,-3.9307 -0.02,-7.8629 0.024,-11.7938 0.02,-1.7898 -0.6398,-2.5443 -2.5351,-2.4963 -4.143,0.1049 -8.2955,0.1303 -12.4349,-0.038 -2.1697,-0.088 -2.7923,0.866 -2.7364,2.7632 0.09,3.0702 0.1809,6.1408 0.2215,9.212 0.014,1.067 -0.069,2.1421 -0.1964,3.2029 -0.2657,2.2073 -1.7403,3.597 -3.7579,3.6203 -2.321,0.027 -3.5876,-1.115 -3.9481,-3.5877 -0.4251,-2.9168 -0.2979,-5.8612 -0.165,-8.7761 0.4299,-9.4315 0.066,-18.8649 0.2326,-28.2954 0.05,-2.831 1.0857,-4.0176 3.5085,-4.1039 2.7234,-0.097 3.8559,0.8842 4.1465,3.7042 0.4113,3.9915 0.1477,7.9978 0.1512,11.9964 0,1.5379 0.3927,2.1157 2.0683,2.0594 4.2127,-0.1414 8.4352,-0.1416 12.6493,-0.031 2.0888,0.055 2.9458,-0.5376 2.8411,-2.7826 -0.1732,-3.7088 -0.057,-7.4318 -0.033,-11.1487 0.016,-2.4531 0.993,-3.6087 3.1209,-3.7892 2.8239,-0.2396 4.2513,0.691 4.5393,3.2592 0.4949,4.4134 0.312,8.8537 0.1069,13.2747 -0.1726,3.7177 -0.2628,7.4281 -0.016,11.1374 0.2806,4.2097 -0.3338,8.4166 0.061,12.6316 0.101,1.077 -0.053,2.3067 -1.0679,3.3205 z"
               id="path2-4"
               style="fill:#dab073;fill-opacity:1;stroke-width:0.429245" />
            <path
               fill="#000000"
               opacity="1"
               stroke="none"
               d="m 1733.8842,1701.823 c 1.6426,0 3.0739,-0.036 4.5021,0.014 2.3656,0.083 3.7868,1.5723 3.8544,3.9622 0.067,2.3583 -1.3006,3.9132 -3.7593,4.0064 -2.7846,0.1055 -5.5778,0.1025 -8.3633,0.018 -1.5499,-0.047 -2.2217,0.4384 -2.1443,2.0687 0.095,1.9967 0.067,4.0059 -0.036,6.0032 -0.078,1.5176 0.538,2.0009 2.0038,1.9796 4.3604,-0.063 8.7223,-0.036 13.0836,-0.023 2.9123,0.01 4.3108,1.2664 4.308,3.8227 0,2.6589 -1.5051,4.1745 -4.3025,4.1876 -6.4345,0.03 -12.8694,0.025 -19.304,0 -2.4577,-0.011 -3.533,-1.0065 -3.7418,-3.4218 -0.543,-6.2808 0.2146,-12.5619 0.018,-18.8477 -0.1763,-5.6406 0.07,-11.2878 -0.2198,-16.9323 -0.2118,-4.1281 0.9765,-5.2901 5.0373,-5.2941 5.9342,-0.01 11.8685,-0.019 17.8027,3e-4 2.7115,0.01 4.1509,1.1976 4.2815,3.4393 0.1501,2.5758 -1.1002,4.226 -3.8731,4.3801 -3.8485,0.2139 -7.7164,0.093 -11.576,0.093 -3.4557,10e-5 -3.4547,-0.013 -3.4784,3.5342 -0.012,1.7873 -0.01,3.5749 -0.049,5.3617 -0.025,1.1681 0.4751,1.7026 1.6683,1.6623 1.3569,-0.046 2.7165,-0.011 4.2876,-0.011 z"
               id="path3-56"
               style="fill:#dab073;fill-opacity:1;stroke-width:0.429245" />
            <path
               fill="#000000"
               opacity="1"
               stroke="none"
               d="m 1600.1127,1716.8748 c 1.1609,2.5523 2.3047,4.9355 3.329,7.369 0.7251,1.7227 1.0878,3.458 -0.9348,4.6974 -1.6795,1.0292 -4.2015,0.6446 -5.6851,-0.936 -1.202,-1.2806 -1.8963,-2.8796 -2.4362,-4.4919 -0.6745,-2.0144 -1.856,-2.7212 -3.9821,-2.6152 -3.4924,0.1742 -7.0008,0.098 -10.5004,0.024 -1.4023,-0.029 -2.2834,0.4403 -2.842,1.7394 -0.5917,1.3759 -1.3326,2.687 -1.9851,4.0375 -0.592,1.2256 -1.5641,2.0659 -2.7886,2.5367 -1.3965,0.5369 -2.8259,0.5105 -4.0522,-0.4872 -1.2561,-1.0219 -1.2289,-2.395 -0.6772,-3.7163 2.2546,-5.3989 4.4955,-10.8058 6.8843,-16.1458 3.0323,-6.7783 5.9661,-13.5962 8.7705,-20.4711 0.4734,-1.1607 0.7665,-2.5495 2.4864,-2.5181 1.5882,0.029 1.9063,1.3292 2.3652,2.4127 4.0093,9.4655 7.9905,18.9429 12.0483,28.5643 m -17.2336,-6.6239 c -0.24,0.7732 -0.9773,1.4499 -0.3362,2.6413 2.0665,-0.1296 4.2704,0.3429 6.6627,-0.3526 -0.9788,-2.8279 -2.1499,-5.2455 -3.5419,-7.7389 -0.3459,0.3993 -0.5229,0.5336 -0.6069,0.7117 -0.6947,1.4743 -1.3723,2.9566 -2.1777,4.7385 z"
               id="path4-34"
               style="fill:#dab073;fill-opacity:1;stroke-width:0.429245" />
            <path
               fill="#000000"
               opacity="1"
               stroke="none"
               d="m 1689.0249,1691.2973 c -1.7005,0.2467 -1.3366,1.4409 -1.3385,2.3697 -0.021,10.1455 0,20.2912 -0.026,30.4367 -0.01,3.2109 -2.8963,5.0172 -5.8009,3.6476 -1.7851,-0.8418 -2.2189,-2.4319 -2.2139,-4.2806 0.025,-9.2166 0.012,-18.4334 0.012,-27.6501 0,-0.7145 -0.082,-1.4397 0.012,-2.1414 0.2611,-1.9491 -0.675,-2.5142 -2.4651,-2.4304 -2.0674,0.097 -4.1451,0.1079 -6.2132,0.025 -2.0863,-0.083 -3.9689,-0.5894 -4.6532,-2.9801 -0.762,-2.6623 0.6374,-4.6556 3.38,-4.9495 4.0021,-0.4289 7.9924,0.048 11.9867,0 4.9966,-0.061 9.9911,0.1468 14.9921,-0.2463 3.9082,-0.3073 6.1123,2.5896 4.6643,5.746 -0.6201,1.3516 -1.5982,2.1143 -3.1537,2.1456 -2.998,0.06 -5.9948,0.1901 -9.1818,0.3083 z"
               id="path5-8"
               style="fill:#dab073;fill-opacity:1;stroke-width:0.429245" />
            <path
               fill="#000000"
               opacity="1"
               stroke="none"
               d="m 1624.7547,1684.6282 c 2.2559,0.563 2.9342,1.9669 2.9192,4.0252 -0.055,7.5767 0,15.1541 -0.039,22.7309 -0.01,1.524 0.215,3.0026 0.615,4.4344 1.2112,4.3364 5.2579,6.2843 10.2304,5.0516 1.0861,-0.2692 2.1417,-0.8855 3.3288,-0.414 1.5547,0.6176 2.7339,1.5974 2.968,3.3461 0.2456,1.8338 -0.5293,3.2788 -2.1394,4.0872 -8.0733,4.0529 -20.4187,0.6904 -22.5557,-10.6985 -0.3569,-1.9019 -0.4461,-3.8194 -0.4394,-5.7549 0.025,-7.3625 -0.015,-14.7252 0.01,-22.0878 0.011,-3.739 1.1276,-4.7782 5.1049,-4.7202 z"
               id="path6-8"
               style="fill:#dab073;fill-opacity:1;stroke-width:0.429245" />
            <path
               fill="#000000"
               opacity="1"
               stroke="none"
               d="m 1646.1926,1684.6649 c -2.2559,0.5631 -2.9342,1.9669 -2.9193,4.0253 0.055,7.5766 0,15.154 0.039,22.7309 0.01,1.5239 -0.215,3.0025 -0.615,4.4344 -1.2112,4.3363 -5.2579,6.2842 -10.2304,5.0515 -1.0862,-0.2692 -2.1418,-0.8855 -3.3288,-0.4139 -1.5547,0.6175 -2.7339,1.5974 -2.968,3.346 -0.2456,1.8338 0.5292,3.2789 2.1394,4.0872 8.0733,4.0529 20.4186,0.6904 22.5557,-10.6985 0.3569,-1.9019 0.4461,-3.8193 0.4394,-5.7549 -0.025,-7.3625 0.015,-14.7252 -0.01,-22.0877 -0.011,-3.739 -1.1276,-4.7783 -5.105,-4.7203 z"
               id="path6-5-1"
               style="fill:#dab073;fill-opacity:1;stroke-width:0.429245" />
          </g>
          <g
             id="g422"
             transform="matrix(1.2917818,0,0,1.2917818,-367.23661,-574.0683)"
             style="fill:#dab073;fill-opacity:1">
            <g
               id="g15">
              <path
                 fill="#000000"
                 opacity="1"
                 stroke="none"
                 d="m 1577.7539,1746.8611 c 2.8457,-0.2992 5.3167,0.029 7.0834,2.3676 2.0256,2.681 1.941,5.7863 -0.2125,8.4547 -1.8214,2.257 -5.3439,3.0235 -7.9692,1.7341 -2.8014,-1.3759 -4.3652,-4.6548 -3.6756,-7.7152 0.5695,-2.5278 2.0814,-4.1592 4.7739,-4.8412 m -1.236,6.6451 c 0.3784,1.5622 1.1092,2.7971 2.9187,2.8696 1.616,0.065 3.1229,-1.2651 3.2448,-2.7814 0.1217,-1.5145 -1.3284,-3.2687 -2.8686,-3.4698 -1.6885,-0.2205 -2.852,0.8431 -3.2949,3.3816 z"
                 id="path7-6"
                 style="fill:#dab073;fill-opacity:1;stroke-width:0.429245" />
              <path
                 fill="#000000"
                 opacity="1"
                 stroke="none"
                 d="m 1647.6174,1746.4523 c 0.7729,10e-5 1.3455,0.035 1.9126,-0.01 2.094,-0.1497 3.8198,0.4785 4.8623,2.3936 1.0389,1.9084 0.7534,3.7098 -0.6654,5.3313 -0.713,0.815 -0.391,1.5499 0.062,2.339 0.4846,0.8434 1.2998,1.5303 1.3357,2.7486 -1.7081,0.6753 -3.118,0.527 -4.1154,-1.2241 -0.2102,-0.369 -0.4973,-0.6944 -0.7516,-1.038 -0.3947,-0.5333 -0.8776,-1.0644 -1.574,-0.897 -0.7157,0.172 -0.9098,0.89 -0.9068,1.5398 0.01,1.1074 -0.062,1.974 -1.5729,1.8778 -1.5208,-0.097 -1.6588,-1.0435 -1.6534,-2.2024 0.012,-2.7074 0.069,-5.4163 0,-8.1218 -0.053,-2.0535 0.6739,-3.1173 3.0674,-2.7414 m 3.9365,4.7062 c -0.2777,-1.275 -1.2375,-1.4003 -2.3021,-1.3924 -0.8974,0.01 -1.3208,0.4871 -1.3286,1.3231 -0.01,0.8122 0.3307,1.38 1.2651,1.3606 0.915,-0.019 1.917,0.1748 2.3656,-1.2913 z"
                 id="path8-5"
                 style="fill:#dab073;fill-opacity:1;stroke-width:0.429245" />
              <path
                 fill="#000000"
                 opacity="1"
                 stroke="none"
                 d="m 1667.3106,1759.6112 c -5.0844,-0.061 -4.8596,0.6333 -4.8585,-4.5981 4e-4,-2.2148 0.043,-4.4303 0,-6.6443 -0.024,-1.347 0.512,-1.9624 1.8991,-1.9224 1.9274,0.055 3.8587,0.052 5.7864,0 1.1358,-0.031 1.7758,0.4133 1.8457,1.5541 0.078,1.2682 -0.8028,1.5546 -1.8013,1.6204 -1.0681,0.071 -2.1413,0.059 -3.2111,0.1086 -0.5296,0.024 -1.048,0.1893 -1.0536,0.8255 -0.01,0.6577 0.58,0.7739 1.0642,0.8276 0.6316,0.07 1.2758,0.04 1.9142,0.03 0.8984,-0.014 1.5241,0.2287 1.5505,1.2973 0.025,1.0112 -0.2705,1.6476 -1.4027,1.7084 -1.198,0.1252 -2.747,-0.2602 -3.1961,1.0344 -0.471,2.1306 3.028,0.775 4.4138,0.8681 0.9891,0.067 1.8874,0.1301 1.88,1.4701 -0.01,1.2492 -0.5898,1.8365 -1.8391,1.8102 -0.9282,-0.02 -1.8574,0.01 -2.9953,0.01 z"
                 id="path9-1"
                 style="fill:#dab073;fill-opacity:1;stroke-width:0.429245"
                 sodipodi:nodetypes="cccccccccscsccccccc" />
              <path
                 fill="#000000"
                 opacity="1"
                 stroke="none"
                 d="m 1599.5169,1753.2771 c 0.032,-1.8372 0.024,-3.4786 0.1014,-5.1161 0.052,-1.1147 0.8292,-1.3384 1.8021,-1.3244 1.0031,0.014 1.7173,0.3448 1.701,1.4431 -0.037,2.4898 0.2734,4.9988 -0.3134,7.4628 -0.6621,2.7803 -2.7884,4.3821 -5.5996,4.2525 -2.5976,-0.1197 -4.728,-2.0092 -4.952,-4.7264 -0.1929,-2.3384 -0.054,-4.7036 -0.076,-7.0568 -0.011,-1.1852 0.7175,-1.3745 1.6916,-1.3792 1.0527,-0.01 1.5931,0.3995 1.5785,1.5049 -0.021,1.6403 -0.01,3.2816 0.017,4.9221 0.02,1.4186 0.1666,2.8413 2,2.9746 2.0214,0.147 2.0151,-1.3533 2.0488,-2.9571 z"
                 id="path10-7"
                 style="fill:#dab073;fill-opacity:1;stroke-width:0.429245" />
              <path
                 fill="#000000"
                 opacity="1"
                 stroke="none"
                 d="m 1555.9189,1749.3218 c 2.4331,-2.6958 6.0771,-3.4228 8.7617,-1.8074 0.9406,0.5661 2.234,1.1201 1.5245,2.582 -0.7416,1.5281 -1.8485,1.3596 -3.1765,0.5345 -1.4936,-0.928 -3.0321,-0.8674 -4.1324,0.7316 -0.9245,1.3435 -0.4576,3.5524 0.81,4.6495 1.2514,1.0829 2.427,0.6317 3.4882,-0.1791 1.2793,-0.9776 2.1668,-0.6876 2.9933,0.5507 0.9384,1.4059 -0.1818,1.9022 -1.0682,2.4644 -2.7894,1.7689 -6.0273,1.5484 -8.2877,-0.5299 -2.2651,-2.0826 -2.656,-5.5285 -0.9129,-8.9963 z"
                 id="path11-1"
                 style="fill:#dab073;fill-opacity:1;stroke-width:0.429245" />
              <path
                 fill="#000000"
                 opacity="1"
                 stroke="none"
                 d="m 1632.5343,1755.8814 c 1.5743,-0.7791 1.3718,-2.2168 1.5061,-3.4324 0.1558,-1.4106 0.095,-2.8483 0.079,-4.2736 -0.013,-1.1391 0.4416,-1.704 1.6376,-1.714 1.2172,-0.01 1.6733,0.596 1.6273,1.7138 -0.099,2.413 0.2943,4.8435 -0.3063,7.24 -0.6486,2.5876 -2.5733,4.1664 -5.1924,4.2013 -2.6249,0.035 -4.6393,-1.4654 -5.2289,-4.113 -0.5783,-2.5967 -0.2057,-5.2524 -0.2161,-7.8826 0,-0.9618 0.6686,-1.1288 1.459,-1.1435 0.9748,-0.018 1.7285,0.2534 1.7537,1.3785 0.042,1.8529 -0.059,3.7136 0.074,5.5586 0.1111,1.5393 0.3956,3.1413 2.8069,2.4669 z"
                 id="path12-2"
                 style="fill:#dab073;fill-opacity:1;stroke-width:0.429245" />
              <path
                 fill="#000000"
                 opacity="1"
                 stroke="none"
                 d="m 1614.5245,1746.4519 c 1.3496,0 2.4937,0.071 3.6278,-0.01 1.2948,-0.088 1.8172,0.5633 1.9082,1.725 0.088,1.1207 -0.6096,1.5677 -1.5755,1.5674 -1.4796,0 -1.7429,0.8307 -1.7094,2.0779 0.054,1.9929 0.01,3.9884 0.01,5.9827 0,1.0958 -0.4006,1.7952 -1.6224,1.7339 -1.1014,-0.055 -1.6792,-0.5523 -1.657,-1.7404 0.037,-1.9935 -0.043,-3.9891 -0.01,-5.9827 0.024,-1.337 -0.3002,-2.2246 -1.8879,-2.129 -1.2362,0.074 -1.5353,-0.6932 -1.5199,-1.7913 0.016,-1.1721 0.685,-1.435 1.6605,-1.4271 0.8546,0.01 1.7094,-0.01 2.7741,-0.01 z"
                 id="path14-84"
                 style="fill:#dab073;fill-opacity:1;stroke-width:0.429245" />
            </g>
          </g>
        </g>
      </g>
    </g>
  </g>
</svg>
